<?xml version="1.0" encoding="UTF-8" standalone="no"?>
<!-- Created with Inkscape (http://www.inkscape.org/) -->

<svg
   xmlns:dc="http://purl.org/dc/elements/1.1/"
   xmlns:cc="http://creativecommons.org/ns#"
   xmlns:rdf="http://www.w3.org/1999/02/22-rdf-syntax-ns#"
   xmlns:svg="http://www.w3.org/2000/svg"
   xmlns="http://www.w3.org/2000/svg"
   xmlns:sodipodi="http://sodipodi.sourceforge.net/DTD/sodipodi-0.dtd"
   xmlns:inkscape="http://www.inkscape.org/namespaces/inkscape"
   width="0.66666663in"
   height="0.66666663in"
   viewBox="0 0 59.999997 59.999997"
   id="svg4187"
   version="1.1"
   inkscape:version="0.91 r13725"
   sodipodi:docname="copyright.svg">
  <defs
     id="defs4189" />
  <sodipodi:namedview
     id="base"
     pagecolor="#ffffff"
     bordercolor="#666666"
     borderopacity="1.0"
     inkscape:pageopacity="0.0"
     inkscape:pageshadow="2"
     inkscape:zoom="0.98994949"
     inkscape:cx="-25.969195"
     inkscape:cy="-40.823373"
     inkscape:document-units="px"
     inkscape:current-layer="layer1"
     showgrid="false"
     fit-margin-top="0"
     fit-margin-left="0"
     fit-margin-right="0"
     fit-margin-bottom="0"
     units="in"
     inkscape:window-width="1366"
     inkscape:window-height="741"
     inkscape:window-x="0"
     inkscape:window-y="27"
     inkscape:window-maximized="1" />
  <metadata
     id="metadata4192">
    <rdf:RDF>
      <cc:Work
         rdf:about="">
        <dc:format>image/svg+xml</dc:format>
        <dc:type
           rdf:resource="http://purl.org/dc/dcmitype/StillImage" />
        <dc:title></dc:title>
      </cc:Work>
    </rdf:RDF>
  </metadata>
  <g
     inkscape:label="Layer 1"
     inkscape:groupmode="layer"
     id="layer1"
     transform="translate(-133.59602,-504.48047)">
    <g
       id="g3356"
       transform="matrix(0.30612245,0,0,0.30612245,133.59602,504.48047)"
       style="opacity:1;fill:#241c1c;fill-opacity:1">
      <path
         inkscape:connector-curvature="0"
         id="circle4"
         d="M 98,0 A 98,98 0 0 0 0,98 98,98 0 0 0 98,196 98,98 0 0 0 196,98 98,98 0 0 0 98,0 Z m 0,20 A 78,78 0 0 1 176,98 78,78 0 0 1 98,176 78,78 0 0 1 20,98 78,78 0 0 1 98,20 Z"
         style="fill:#241c1c;fill-opacity:1" />
      <path
         inkscape:connector-curvature="0"
         id="circle8"
         d="m 98,43 a 55,55 0 0 0 -55,55 55,55 0 0 0 55,55 55,55 0 0 0 53.60352,-43 l -26.12696,0 A 30,30 0 0 1 98,128 30,30 0 0 1 68,98 30,30 0 0 1 98,68 30,30 0 0 1 125.00781,85 L 151.375,85 A 55,55 0 0 0 98,43 Z"
         style="fill:#241c1c;fill-opacity:1" />
    </g>
  </g>
</svg>
