<?xml version="1.0" encoding="UTF-8" standalone="no"?>
<!-- Generator: Adobe Illustrator 13.0.2, SVG Export Plug-In . SVG Version: 6.00 Build 14948)  -->

<svg
   xmlns:dc="http://purl.org/dc/elements/1.1/"
   xmlns:cc="http://creativecommons.org/ns#"
   xmlns:rdf="http://www.w3.org/1999/02/22-rdf-syntax-ns#"
   xmlns:svg="http://www.w3.org/2000/svg"
   xmlns="http://www.w3.org/2000/svg"
   xmlns:sodipodi="http://sodipodi.sourceforge.net/DTD/sodipodi-0.dtd"
   xmlns:inkscape="http://www.inkscape.org/namespaces/inkscape"
   version="1.0"
   id="Layer_1"
   x="0px"
   y="0px"
   width="60"
   height="60"
   viewBox="5.5 -3.5 60 60"
   enable-background="new 5.5 -3.5 64 64"
   xml:space="preserve"
   inkscape:version="0.91 r13725"
   sodipodi:docname="cc.svg"><metadata
     id="metadata13"><rdf:RDF><cc:Work
         rdf:about=""><dc:format>image/svg+xml</dc:format><dc:type
           rdf:resource="http://purl.org/dc/dcmitype/StillImage" /><dc:title></dc:title></cc:Work></rdf:RDF></metadata><defs
     id="defs11" /><sodipodi:namedview
     pagecolor="#ffffff"
     bordercolor="#666666"
     borderopacity="1"
     objecttolerance="10"
     gridtolerance="10"
     guidetolerance="10"
     inkscape:pageopacity="0"
     inkscape:pageshadow="2"
     inkscape:window-width="1366"
     inkscape:window-height="741"
     id="namedview9"
     showgrid="false"
     inkscape:zoom="1.3037281"
     inkscape:cx="129.84015"
     inkscape:cy="2.722097"
     inkscape:window-x="0"
     inkscape:window-y="27"
     inkscape:window-maximized="1"
     inkscape:current-layer="g3"
     fit-margin-top="0"
     fit-margin-left="0"
     fit-margin-right="0"
     fit-margin-bottom="0" /><g
     id="g3"
     transform="translate(0,-3.999)"><path
       d="m 35.445155,0.499 c 8.391694,0 15.536493,2.9297333 21.428773,8.7863873 2.820044,2.8209817 4.96414,6.0450947 6.428538,9.6695257 1.46346,3.62537 2.197534,7.47293 2.197534,11.544556 0,4.107251 -0.724699,7.955749 -2.169409,11.543618 -1.446585,3.588806 -3.581306,6.75948 -6.40135,9.509211 -2.927858,2.892232 -6.249473,5.10758 -9.964843,6.643229 C 43.250902,59.731176 39.410842,60.499 35.44703,60.499 31.483218,60.499 27.688159,59.741488 24.06279,58.221777 20.438358,56.704878 17.187995,54.508281 14.312638,51.633861 11.43728,48.759442 9.2500586,45.517516 7.7500352,41.90996 6.2500117,38.302403 5.5,34.499844 5.5,30.499469 5.5,26.534719 6.2584494,22.722785 7.7762856,19.06179 9.2941218,15.400795 11.500094,12.124182 14.392326,9.2310114 20.106478,3.4109205 27.123775,0.499 35.445155,0.499 Z m 0.108752,5.4113346 c -6.856982,0 -12.62551,2.3934749 -17.304645,7.1785494 -2.35785,2.393475 -4.170065,5.080392 -5.437585,8.062626 -1.269395,2.982234 -1.902217,6.098533 -1.902217,9.348896 0,3.214738 0.632822,6.313224 1.902217,9.293583 1.268457,2.984109 3.079735,5.644776 5.437585,7.983875 2.356912,2.340036 5.016641,4.124127 7.982937,5.357896 2.963484,1.231894 6.071345,1.847841 9.321708,1.847841 3.2138,0 6.328224,-0.623447 9.349834,-1.874091 3.017859,-1.251583 5.738527,-3.053486 8.168565,-5.410397 4.678198,-4.571322 7.016359,-10.303286 7.016359,-17.197769 0,-3.321615 -0.607509,-6.464164 -1.821591,-9.428585 C 57.054868,18.108338 55.285778,15.466421 52.966367,13.14326 48.141916,8.3216222 42.339638,5.9103346 35.553907,5.9103346 Z m -0.375943,19.6081184 -4.019126,2.089721 c -0.429381,-0.891577 -0.955327,-1.517837 -1.579712,-1.87503 -0.625322,-0.356255 -1.205644,-0.535321 -1.741902,-0.535321 -2.677542,0 -4.018188,1.767216 -4.018188,5.303521 0,1.6069 0.339381,2.891295 1.017204,3.855998 0.67876,0.964702 1.679088,1.447522 3.000984,1.447522 1.75034,0 2.982234,-0.857826 3.697558,-2.571603 l 3.695683,1.87503 c -0.785638,1.465335 -1.87503,2.616603 -3.268177,3.455679 -1.391271,0.840013 -2.927858,1.259082 -4.606947,1.259082 -2.678479,0 -4.840388,-0.820325 -6.482913,-2.464726 -1.642526,-1.642526 -2.463789,-3.928186 -2.463789,-6.856045 0,-2.857544 0.830638,-5.124455 2.490977,-6.803544 1.660338,-1.678151 3.758496,-2.518164 6.29541,-2.518164 3.715371,-0.0019 6.3751,1.44471 7.982938,4.33788 z m 17.303708,0 -3.96475,2.089721 c -0.428444,-0.891577 -0.956265,-1.517837 -1.58065,-1.87503 -0.626259,-0.356255 -1.225331,-0.535321 -1.794403,-0.535321 -2.678479,0 -4.019125,1.767216 -4.019125,5.303521 0,1.6069 0.340318,2.891295 1.018141,3.855998 0.677823,0.964702 1.677214,1.447522 3.000984,1.447522 1.748465,0 2.981297,-0.857826 3.694746,-2.571603 l 3.750058,1.87503 c -0.820325,1.465335 -1.928467,2.616603 -3.319739,3.455679 -1.393147,0.840013 -2.910983,1.259082 -4.553509,1.259082 -2.715042,0 -4.883514,-0.820325 -6.507289,-2.464726 -1.627525,-1.642526 -2.439413,-3.928186 -2.439413,-6.856045 0,-2.857544 0.8297,-5.124455 2.491914,-6.803544 1.659401,-1.678151 3.757559,-2.518164 6.293536,-2.518164 3.714433,-0.0019 6.359162,1.44471 7.929499,4.33788 z"
       id="path7"
       inkscape:connector-curvature="0" /></g></svg>