<?xml version="1.0" encoding="UTF-8" standalone="no"?>
<!-- Created with Inkscape (http://www.inkscape.org/) -->

<svg
   xmlns:dc="http://purl.org/dc/elements/1.1/"
   xmlns:cc="http://creativecommons.org/ns#"
   xmlns:rdf="http://www.w3.org/1999/02/22-rdf-syntax-ns#"
   xmlns:svg="http://www.w3.org/2000/svg"
   xmlns="http://www.w3.org/2000/svg"
   xmlns:sodipodi="http://sodipodi.sourceforge.net/DTD/sodipodi-0.dtd"
   xmlns:inkscape="http://www.inkscape.org/namespaces/inkscape"
   width="70.555557mm"
   height="70.555557mm"
   viewBox="0 0 250.00001 250"
   id="svg4599"
   version="1.1"
   inkscape:version="0.91 r13725"
   sodipodi:docname="deviantart.svg">
  <defs
     id="defs4601" />
  <sodipodi:namedview
     id="base"
     pagecolor="#ffffff"
     bordercolor="#666666"
     borderopacity="1.0"
     inkscape:pageopacity="0.0"
     inkscape:pageshadow="2"
     inkscape:zoom="0.98994949"
     inkscape:cx="133.88967"
     inkscape:cy="201.34431"
     inkscape:document-units="px"
     inkscape:current-layer="layer1"
     showgrid="false"
     fit-margin-top="0"
     fit-margin-left="0"
     fit-margin-right="0"
     fit-margin-bottom="0"
     inkscape:window-width="1366"
     inkscape:window-height="706"
     inkscape:window-x="0"
     inkscape:window-y="25"
     inkscape:window-maximized="1" />
  <metadata
     id="metadata4604">
    <rdf:RDF>
      <cc:Work
         rdf:about="">
        <dc:format>image/svg+xml</dc:format>
        <dc:type
           rdf:resource="http://purl.org/dc/dcmitype/StillImage" />
        <dc:title></dc:title>
      </cc:Work>
    </rdf:RDF>
  </metadata>
  <g
     inkscape:label="Layer 1"
     inkscape:groupmode="layer"
     id="layer1"
     transform="translate(348.70181,-357.88279)">
    <path
       inkscape:connector-curvature="0"
       id="path5"
       d="m -215.72611,466.0856 c -6.24567,-0.36506 -13.45086,0.008 -21.79635,1.43176 l 19.25022,34.69627 76.4768,-20.99904 c -0.8245,-1.96127 -2.02974,-3.87551 -3.62531,-5.72672 -7.91452,-9.16295 -25.07421,-17.33695 -43.76964,-21.02337 l 3.2e-4,-0.004 c -18.33965,-4.29912 -38.20192,-4.11835 -58.54348,-1.0475 -0.73332,0.11006 -1.46279,0.22748 -2.18843,0.34938 l -6.76239,-12.52463 c -6.58162,0.87858 -12.76714,2.24763 -18.49387,4.07516 l 6.44053,13.46943 c -10.51985,4.07548 -19.15232,9.87995 -25.38104,16.8663 -10.2722,11.68828 -14.332,26.38086 -9.39778,40.68887 0.99247,2.88624 2.33368,5.62466 3.98909,8.19063 l 76.47808,-21.00385 -21.23645,-39.32941 c 0.72916,-0.14078 1.47112,-0.28284 2.22811,-0.41977 34.34337,-6.12666 53.12743,3.33768 63.41595,13.41055 l -26.1649,6.34326 -10.91946,-17.44316 z m -61.93107,35.09621 c -2.36089,-10.77452 -0.48184,-22.80003 14.46222,-30.80957 l 11.70012,24.46759 -26.16234,6.34198 z M -98.701795,482.88279 A 125.00001,125.00001 0 0 1 -223.7018,607.8828 125.00001,125.00001 0 0 1 -348.70181,482.88279 125.00001,125.00001 0 0 1 -223.7018,357.88278 125.00001,125.00001 0 0 1 -98.701795,482.88279 Z"
       style="fill:#fefefe;fill-opacity:1" />
  </g>
</svg>
