<?xml version="1.0" encoding="UTF-8" standalone="no"?>
<!-- Created with Inkscape (http://www.inkscape.org/) -->

<svg
   xmlns:dc="http://purl.org/dc/elements/1.1/"
   xmlns:cc="http://creativecommons.org/ns#"
   xmlns:rdf="http://www.w3.org/1999/02/22-rdf-syntax-ns#"
   xmlns:svg="http://www.w3.org/2000/svg"
   xmlns="http://www.w3.org/2000/svg"
   xmlns:sodipodi="http://sodipodi.sourceforge.net/DTD/sodipodi-0.dtd"
   xmlns:inkscape="http://www.inkscape.org/namespaces/inkscape"
   width="70.555557mm"
   height="70.555557mm"
   viewBox="0 0 250.00001 250"
   id="svg4599"
   version="1.1"
   inkscape:version="0.91 r13725"
   sodipodi:docname="github.svg">
  <defs
     id="defs4601" />
  <sodipodi:namedview
     id="base"
     pagecolor="#ffffff"
     bordercolor="#666666"
     borderopacity="1.0"
     inkscape:pageopacity="0.0"
     inkscape:pageshadow="2"
     inkscape:zoom="0.98994949"
     inkscape:cx="-38.328577"
     inkscape:cy="242.26824"
     inkscape:document-units="px"
     inkscape:current-layer="layer1"
     showgrid="false"
     fit-margin-top="0"
     fit-margin-left="0"
     fit-margin-right="0"
     fit-margin-bottom="0"
     inkscape:window-width="1366"
     inkscape:window-height="706"
     inkscape:window-x="0"
     inkscape:window-y="25"
     inkscape:window-maximized="1" />
  <metadata
     id="metadata4604">
    <rdf:RDF>
      <cc:Work
         rdf:about="">
        <dc:format>image/svg+xml</dc:format>
        <dc:type
           rdf:resource="http://purl.org/dc/dcmitype/StillImage" />
        <dc:title></dc:title>
      </cc:Work>
    </rdf:RDF>
  </metadata>
  <g
     inkscape:label="Layer 1"
     inkscape:groupmode="layer"
     id="layer1"
     transform="translate(176.48355,-398.80672)">
    <path
       inkscape:connector-curvature="0"
       id="path4335-6"
       d="m -132.99916,525.80813 c 0,7.38672 0.69097,14.07036 2.07323,20.04998 1.38163,5.97898 3.29501,11.17401 5.73985,15.58541 2.44483,4.41139 5.55388,8.29135 9.32748,11.63954 3.77329,3.3485 7.86594,6.08565 12.27702,8.21142 4.411075,2.12546 9.446895,3.85257 15.107135,5.18166 5.660245,1.32877 11.44021,2.25888 17.339585,2.79064 5.899374,0.53144 12.383369,0.797 19.451989,0.797 7.12179,0 13.632533,-0.26556 19.532223,-0.797 5.89874,-0.53176 11.692715,-1.46219 17.37939,-2.79064 5.6860298,-1.32909 10.7485947,-3.0562 15.18641965,-5.18166 4.43814495,-2.12609 8.55691985,-4.86292 12.35758435,-8.21142 3.800665,-3.34819 6.935515,-7.22878 9.407095,-11.63954 2.47094,-4.4114 4.397705,-9.60611 5.77933,-15.58541 1.381945,-5.97898 2.072915,-12.66326 2.072915,-20.04998 0,-13.18101 -4.411395,-24.5811 -13.233235,-34.2009 0.47827,-1.27559 0.916735,-2.72376 1.315395,-4.34516 0.398665,-1.62108 0.77058,-3.93281 1.115745,-6.93552 0.345805,-3.00334 0.212705,-6.47062 -0.39866,-10.40375 -0.61073,-3.93344 -1.74017,-7.94554 -3.38895,-12.03852 l -1.19535,-0.23913 c -0.85082,-0.15921 -2.246455,-0.11941 -4.185955,0.11973 -1.9394945,0.23913 -4.1986945,0.7174 -6.7756694,1.43512 -2.57793496,0.7174 -5.8993749,2.09966 -9.9656048,4.14583 -4.0662298,2.04617 -8.3578998,4.61041 -12.8756498,7.69304 -7.75895,-2.1261 -18.415525,-3.1893 -31.968133,-3.1893 -13.499755,0 -24.129264,1.0632 -31.888849,3.1893 -4.51775,-3.08295 -8.83617,-5.64687 -12.954935,-7.69304 -4.118765,-2.04617 -7.400405,-3.42843 -9.845235,-4.14552 -2.44452,-0.71772 -4.73014,-1.18261 -6.85591,-1.39531 -2.1261,-0.21271 -3.46824,-0.27894 -4.02611,-0.19934 -0.55787,0.0796 -0.99666,0.17291 -1.3154,0.27894 -1.6475,4.09298 -2.77694,8.10476 -3.38799,12.03852 -0.61105,3.93313 -0.74415,7.40073 -0.39866,10.40375 0.34548,3.00271 0.71772,5.31444 1.11606,6.93552 0.39866,1.62139 0.83713,3.06957 1.3154,4.34516 -8.82216,9.61948 -13.23355,21.01957 -13.23355,34.20058 z m 20.01017,20.01018 c 0,-7.65324 3.48129,-14.66899 10.44355,-21.04664 2.0726,-1.91434 4.491,-3.3622 7.25457,-4.34516 2.76357,-0.9836 5.886005,-1.54147 9.367295,-1.67457 3.48129,-0.13278 6.816105,-0.10636 10.005085,0.0799 3.188665,0.18596 7.121789,0.43846 11.798749,0.7572 4.67696,0.31906 8.71644,0.47827 12.117815,0.47827 3.401685,0 7.440845,-0.15921 12.117805,-0.47827 4.677273,-0.31874 8.609768,-0.57124 11.799703,-0.7572 3.18866,-0.18628 6.52316,-0.2127 10.00477,-0.0799 3.48161,0.1331 6.6034,0.69097 9.3679298,1.67457 2.76325,0.98328 5.1810149,2.43114 7.2539349,4.34516 6.9622598,6.27129 10.4438748,13.28705 10.4438748,21.04664 0,4.5706 -0.571565,8.62314 -1.7147,12.15793 -1.14249,3.5351 -2.6040399,6.49736 -4.3849649,8.8887 -1.78061,2.39166 -4.2515499,4.42477 -7.4137849,6.09871 -3.1625499,1.67425 -6.2445397,2.9629 -9.2472447,3.86753 -3.003345,0.90336 -6.85655,1.60771 -11.560255,2.11272 -4.704025,0.50502 -8.902715,0.8107 -12.596395,0.91673 -3.694308,0.10636 -8.384003,0.15953 -14.070673,0.15953 -5.686675,0 -10.37701,-0.0532 -14.070685,-0.15953 -3.69368,-0.10603 -7.892689,-0.41171 -12.596074,-0.91673 -4.70339,-0.50501 -8.556595,-1.20936 -11.559615,-2.11272 -3.002705,-0.90463 -6.085335,-2.1936 -9.24757,-3.86753 -3.16223,-1.67394 -5.63381,-3.70673 -7.4141,-6.09871 -1.78028,-2.39165 -3.24215,-5.3536 -4.38465,-8.8887 -1.14312,-3.53479 -1.71437,-7.58796 -1.71437,-12.15793 z m 81.884357,-1.60707 c 0,8.44133 4.56169,15.28418 10.18945,15.28418 5.627765,0 10.189455,-6.84285 10.189455,-15.28418 0,-8.44132 -4.56169,-15.28418 -10.189455,-15.28418 -5.62776,0 -10.18945,6.84286 -10.18945,15.28418 z m -61.136722,0 c 0,8.44133 4.56201,15.28418 10.18945,15.28418 5.627445,0 10.189455,-6.84285 10.189455,-15.28418 0,-8.44132 -4.56201,-15.28418 -10.189455,-15.28418 -5.62744,0 -10.18945,6.84286 -10.18945,15.28418 z M 73.516465,523.80671 A 125.00001,125.00001 0 0 1 -51.483541,648.80672 125.00001,125.00001 0 0 1 -176.48355,523.80671 a 125.00001,125.00001 0 0 1 125.000009,-125 125.00001,125.00001 0 0 1 125.000006,125 z"
       style="fill:#fefefe;fill-opacity:1" />
  </g>
</svg>
