<?xml version="1.0" encoding="UTF-8" standalone="no"?>
<svg
   xmlns:dc="http://purl.org/dc/elements/1.1/"
   xmlns:cc="http://creativecommons.org/ns#"
   xmlns:rdf="http://www.w3.org/1999/02/22-rdf-syntax-ns#"
   xmlns:svg="http://www.w3.org/2000/svg"
   xmlns="http://www.w3.org/2000/svg"
   xmlns:sodipodi="http://sodipodi.sourceforge.net/DTD/sodipodi-0.dtd"
   xmlns:inkscape="http://www.inkscape.org/namespaces/inkscape"
   height="60px"
   version="1.1"
   viewBox="0 0 60 60"
   width="60px"
   id="svg2"
   inkscape:version="0.91 r13725"
   sodipodi:docname="number-zero-white.svg">
  <metadata
     id="metadata15">
    <rdf:RDF>
      <cc:Work
         rdf:about="">
        <dc:format>image/svg+xml</dc:format>
        <dc:type
           rdf:resource="http://purl.org/dc/dcmitype/StillImage" />
        <dc:title></dc:title>
      </cc:Work>
    </rdf:RDF>
  </metadata>
  <sodipodi:namedview
     pagecolor="#ffffff"
     bordercolor="#666666"
     borderopacity="1"
     objecttolerance="10"
     gridtolerance="10"
     guidetolerance="10"
     inkscape:pageopacity="0"
     inkscape:pageshadow="2"
     inkscape:window-width="1366"
     inkscape:window-height="741"
     id="namedview13"
     showgrid="false"
     inkscape:zoom="3.9333333"
     inkscape:cx="-0.38135593"
     inkscape:cy="30"
     inkscape:window-x="0"
     inkscape:window-y="27"
     inkscape:window-maximized="1"
     inkscape:current-layer="svg2" />
  <desc
     id="desc6" />
  <defs
     id="defs8" />
  <g
     fill="none"
     fill-rule="evenodd"
     id="People"
     stroke="none"
     stroke-width="1"
     style="fill:#fefefe;fill-opacity:1">
    <g
       fill="#000000"
       id="Icon-80"
       style="fill:#fefefe;fill-opacity:1">
      <path
         d="M36,24 L36,36 C36,39.309 33.309,42 30,42 C28.39,42 26.876,41.37 25.739,40.226 C25.35,39.834 25.352,39.2 25.743,38.812 C26.135,38.421 26.768,38.424 27.157,38.815 C27.916,39.579 28.926,40 30,40 C32.206,40 34,38.206 34,36 L34,24 C34,21.794 32.206,20 30,20 C27.794,20 26,21.794 26,24 L26,36 C26,36.553 25.553,37 25,37 C24.447,37 24,36.553 24,36 L24,24 C24,20.691 26.691,18 30,18 C33.309,18 36,20.691 36,24 M30,58 C14.561,58 2,45.439 2,30 C2,14.561 14.561,2 30,2 C45.439,2 58,14.561 58,30 C58,45.439 45.439,58 30,58 M30,0 C13.458,0 0,13.458 0,30 C0,46.542 13.458,60 30,60 C46.542,60 60,46.542 60,30 C60,13.458 46.542,0 30,0"
         id="number-ten"
         style="fill:#fefefe;fill-opacity:1" />
    </g>
  </g>
</svg>
