<?xml version="1.0" encoding="UTF-8" standalone="no"?>
<!-- Generator: Adobe Illustrator 19.0.0, SVG Export Plug-In . SVG Version: 6.00 Build 0)  -->

<svg
   xmlns:dc="http://purl.org/dc/elements/1.1/"
   xmlns:cc="http://creativecommons.org/ns#"
   xmlns:rdf="http://www.w3.org/1999/02/22-rdf-syntax-ns#"
   xmlns:svg="http://www.w3.org/2000/svg"
   xmlns="http://www.w3.org/2000/svg"
   xmlns:sodipodi="http://sodipodi.sourceforge.net/DTD/sodipodi-0.dtd"
   xmlns:inkscape="http://www.inkscape.org/namespaces/inkscape"
   version="1.1"
   id="Capa_1"
   x="0px"
   y="0px"
   viewBox="0 0 294.842 294.842"
   style="enable-background:new 0 0 294.842 294.842;"
   xml:space="preserve"
   inkscape:version="0.91 r13725"
   sodipodi:docname="picture-white.svg"><metadata
     id="metadata43"><rdf:RDF><cc:Work
         rdf:about=""><dc:format>image/svg+xml</dc:format><dc:type
           rdf:resource="http://purl.org/dc/dcmitype/StillImage" /><dc:title></dc:title></cc:Work></rdf:RDF></metadata><defs
     id="defs41" /><sodipodi:namedview
     pagecolor="#ffffff"
     bordercolor="#666666"
     borderopacity="1"
     objecttolerance="10"
     gridtolerance="10"
     guidetolerance="10"
     inkscape:pageopacity="0"
     inkscape:pageshadow="2"
     inkscape:window-width="780"
     inkscape:window-height="480"
     id="namedview39"
     showgrid="false"
     inkscape:zoom="0.80042868"
     inkscape:cx="-1.8739958"
     inkscape:cy="147.42101"
     inkscape:window-x="0"
     inkscape:window-y="27"
     inkscape:window-maximized="0"
     inkscape:current-layer="Capa_1" /><g
     id="g3"
     style="fill:#fefefe;fill-opacity:1"><path
       d="M288.842,55.421c-3.313,0-6,2.687-6,6v221.421H12V12h276.842c3.313,0,6-2.687,6-6s-2.687-6-6-6H6C2.687,0,0,2.687,0,6   v282.842c0,3.313,2.687,6,6,6h282.842c3.313,0,6-2.687,6-6V61.421C294.842,58.107,292.155,55.421,288.842,55.421z"
       id="path5"
       style="fill:#fefefe;fill-opacity:1" /><path
       d="M39.12,33.12c-3.313,0-6,2.687-6,6v173.858c0,3.313,2.687,6,6,6h216.602c3.313,0,6-2.687,6-6V39.12c0-3.313-2.687-6-6-6   H39.12z M45.12,45.12h204.602v152.99l-62.709-62.709c-2.342-2.344-6.143-2.344-8.484,0l-17.321,17.32l-30.916-30.915   c-2.342-2.344-6.143-2.344-8.484,0l-59.5,59.5c-2.344,2.343-2.344,6.142,0,8.484c2.342,2.344,6.143,2.344,8.484,0l55.258-55.257   l30.916,30.915c2.342,2.344,6.143,2.344,8.484,0l17.321-17.32l58.85,58.85H45.12V45.12z"
       id="path7"
       style="fill:#fefefe;fill-opacity:1" /></g><g
     id="g9" /><g
     id="g11" /><g
     id="g13" /><g
     id="g15" /><g
     id="g17" /><g
     id="g19" /><g
     id="g21" /><g
     id="g23" /><g
     id="g25" /><g
     id="g27" /><g
     id="g29" /><g
     id="g31" /><g
     id="g33" /><g
     id="g35" /><g
     id="g37" /></svg>