<?xml version="1.0" encoding="UTF-8" standalone="no"?>
<!-- Created with Inkscape (http://www.inkscape.org/) -->

<svg
   xmlns:dc="http://purl.org/dc/elements/1.1/"
   xmlns:cc="http://creativecommons.org/ns#"
   xmlns:rdf="http://www.w3.org/1999/02/22-rdf-syntax-ns#"
   xmlns:svg="http://www.w3.org/2000/svg"
   xmlns="http://www.w3.org/2000/svg"
   xmlns:sodipodi="http://sodipodi.sourceforge.net/DTD/sodipodi-0.dtd"
   xmlns:inkscape="http://www.inkscape.org/namespaces/inkscape"
   width="300mm"
   height="300mm"
   viewBox="0 0 300 300"
   version="1.1"
   id="svg8"
   sodipodi:docname="demos.svg"
   inkscape:version="0.92.4 (5da689c313, 2019-01-14)">
  <defs
     id="defs2" />
  <sodipodi:namedview
     id="base"
     pagecolor="#ffffff"
     bordercolor="#666666"
     borderopacity="1.0"
     inkscape:pageopacity="0.0"
     inkscape:pageshadow="2"
     inkscape:zoom="2"
     inkscape:cx="620.09015"
     inkscape:cy="445.40828"
     inkscape:document-units="mm"
     inkscape:current-layer="layer1"
     showgrid="false"
     units="mm"
     inkscape:window-width="3840"
     inkscape:window-height="2160"
     inkscape:window-x="0"
     inkscape:window-y="768"
     inkscape:window-maximized="1"
     showguides="true"
     inkscape:guide-bbox="true" />
  <metadata
     id="metadata5">
    <rdf:RDF>
      <cc:Work
         rdf:about="">
        <dc:format>image/svg+xml</dc:format>
        <dc:type
           rdf:resource="http://purl.org/dc/dcmitype/StillImage" />
        <dc:title></dc:title>
      </cc:Work>
    </rdf:RDF>
  </metadata>
  <g
     inkscape:label="Layer 1"
     inkscape:groupmode="layer"
     id="layer1"
     transform="translate(0,2.999996)">
    <rect
       style="opacity:1;fill:#fc654a;fill-opacity:1;stroke:none;stroke-width:0.84666669;stroke-linecap:butt;stroke-linejoin:round;stroke-miterlimit:4;stroke-dasharray:none;stroke-dashoffset:0;stroke-opacity:1;paint-order:stroke fill markers"
       id="rect823"
       width="300"
       height="300"
       x="0.0059058778"
       y="-2.9999959" />
    <g
       aria-label="[DEMOS]"
       transform="matrix(0.26458333,0,0,0.26458333,15.289652,46.660628)"
       style="font-style:normal;font-variant:normal;font-weight:normal;font-stretch:normal;font-size:40px;line-height:1.25;font-family:'PF Tempesta Five Condensed';-inkscape-font-specification:'PF Tempesta Five Condensed, ';letter-spacing:0px;word-spacing:0px;fill:#1f1f1f;fill-opacity:1;stroke:none"
       id="flowRoot815">
      <path
         d="m 473.14258,511.23544 h -336 v -264 h 360 v 24 h -336 v 216 h 312 z"
         style="font-style:normal;font-variant:normal;font-weight:normal;font-stretch:normal;font-size:192px;font-family:'PF Tempesta Five Condensed';-inkscape-font-specification:'PF Tempesta Five Condensed, ';fill:#1f1f1f;fill-opacity:1"
         id="path869"
         inkscape:connector-curvature="0"
         sodipodi:nodetypes="ccccccccc" />
      <path
         d="m 290.74221,333.63544 v 9.6 h 14.4 v 72 h -14.4 v 9.6 h -9.6 v 14.4 h -72 v -120 h 72 v 14.4 z m -57.6,81.6 h 48 v -72 h -48 z"
         style="font-style:normal;font-variant:normal;font-weight:normal;font-stretch:normal;font-size:192px;font-family:'PF Tempesta Five Condensed';-inkscape-font-specification:'PF Tempesta Five Condensed, ';fill:#1f1f1f;fill-opacity:1"
         id="path871"
         inkscape:connector-curvature="0" />
      <path
         d="m 410.74185,367.23544 v 9.6 h -9.6 v 14.4 h -48 v 24 h 72 v 24 h -96 v -120 h 96 v 24 h -72 v 24 z"
         style="font-style:normal;font-variant:normal;font-weight:normal;font-stretch:normal;font-size:192px;font-family:'PF Tempesta Five Condensed';-inkscape-font-specification:'PF Tempesta Five Condensed, ';fill:#1f1f1f;fill-opacity:1"
         id="path873"
         inkscape:connector-curvature="0" />
      <path
         d="m 521.14148,367.42744 v 23.808 h -24 v -23.808 h -24 v 71.808 h -24 v -120 h 24 v 24 h 24 v 24 h 24 v -24 h 24 v -24 h 24 v 120 h -24 v -71.808 z"
         style="font-style:normal;font-variant:normal;font-weight:normal;font-stretch:normal;font-size:192px;font-family:'PF Tempesta Five Condensed';-inkscape-font-specification:'PF Tempesta Five Condensed, ';fill:#1f1f1f;fill-opacity:1"
         id="path875"
         inkscape:connector-curvature="0" />
      <path
         d="m 665.14111,424.83544 v 14.4 h -48 v -14.4 h -9.6 v -9.6 h -14.4 v -72 h 14.4 v -9.6 h 9.6 v -14.4 h 48 v 14.4 h 9.6 v 9.6 h 14.4 v 72 h -14.4 v 9.6 z m 0,-9.6 v -72 h -48 v 72 z"
         style="font-style:normal;font-variant:normal;font-weight:normal;font-stretch:normal;font-size:192px;font-family:'PF Tempesta Five Condensed';-inkscape-font-specification:'PF Tempesta Five Condensed, ';fill:#1f1f1f;fill-opacity:1"
         id="path877"
         inkscape:connector-curvature="0" />
      <path
         d="m 785.14075,439.23544 h -72 v -24 h 72 v -24 h -48 v -14.4 h -9.6 v -9.6 h -14.4 v -24 h 14.4 v -9.6 h 9.6 v -14.4 h 72 v 24 h -72 v 24 h 48 v 14.4 h 9.6 v 9.6 h 14.4 v 24 h -14.4 v 9.6 h -9.6 z"
         style="font-style:normal;font-variant:normal;font-weight:normal;font-stretch:normal;font-size:192px;font-family:'PF Tempesta Five Condensed';-inkscape-font-specification:'PF Tempesta Five Condensed, ';fill:#1f1f1f;fill-opacity:1"
         id="path879"
         inkscape:connector-curvature="0" />
      <path
         d="m 881.14038,511.23544 h -360 v -24 h 336 v -216 h -312 v -24 h 336 z"
         style="font-style:normal;font-variant:normal;font-weight:normal;font-stretch:normal;font-size:192px;font-family:'PF Tempesta Five Condensed';-inkscape-font-specification:'PF Tempesta Five Condensed, ';fill:#1f1f1f;fill-opacity:1"
         id="path881"
         inkscape:connector-curvature="0"
         sodipodi:nodetypes="ccccccccc" />
    </g>
    <g
       aria-label="Joaquim Baeta"
       transform="matrix(0.26458333,0,0,0.26458333,-12.226626,22.511386)"
       style="font-style:normal;font-variant:normal;font-weight:normal;font-stretch:normal;font-size:53.33333588px;line-height:1.25;font-family:'PF Tempesta Five Condensed';-inkscape-font-specification:'PF Tempesta Five Condensed, ';letter-spacing:0px;word-spacing:0px;fill:#1f1f1f;fill-opacity:1;stroke:none"
       id="flowRoot867">
      <path
         d="m 156.34258,310.50817 v 3.2 h -3.2 v 4.8 h -16 v -8 h 16 v -32 h 8 v 32 z"
         style="font-style:normal;font-variant:normal;font-weight:normal;font-stretch:normal;font-size:64px;font-family:'PF Tempesta Five Condensed';-inkscape-font-specification:'PF Tempesta Five Condensed, ';fill:#1f1f1f;fill-opacity:1"
         id="path965"
         inkscape:connector-curvature="0" />
      <path
         d="m 193.14246,313.70817 v 4.8 h -16 v -4.8 h -3.2 v -3.2 h -4.8 v -24 h 4.8 v -3.2 h 3.2 v -4.8 h 16 v 4.8 h 3.2 v 3.2 h 4.8 v 24 h -4.8 v 3.2 z m 0,-3.2 v -24 h -16 v 24 z"
         style="font-style:normal;font-variant:normal;font-weight:normal;font-stretch:normal;font-size:64px;font-family:'PF Tempesta Five Condensed';-inkscape-font-specification:'PF Tempesta Five Condensed, ';fill:#1f1f1f;fill-opacity:1"
         id="path967"
         inkscape:connector-curvature="0" />
      <path
         d="m 236.34233,283.30817 v 3.2 h 4.8 v 32 h -8 v -16 h -16 v 16 h -8 v -32 h 4.8 v -3.2 h 3.2 v -4.8 h 16 v 4.8 z m -3.2,3.2 h -16 v 8 h 16 z"
         style="font-style:normal;font-variant:normal;font-weight:normal;font-stretch:normal;font-size:64px;font-family:'PF Tempesta Five Condensed';-inkscape-font-specification:'PF Tempesta Five Condensed, ';fill:#1f1f1f;fill-opacity:1"
         id="path969"
         inkscape:connector-curvature="0" />
      <path
         d="m 281.14221,326.50817 h -8 v -4.8 h -3.2 v -3.2 h -12.8 v -4.8 h -3.2 v -3.2 h -4.8 v -24 h 4.8 v -3.2 h 3.2 v -4.8 h 16 v 4.8 h 3.2 v 3.2 h 4.8 v 24 h -4.8 v 3.2 h -3.2 v 4.8 h 8 z m -8,-16 v -24 h -16 v 24 z"
         style="font-style:normal;font-variant:normal;font-weight:normal;font-stretch:normal;font-size:64px;font-family:'PF Tempesta Five Condensed';-inkscape-font-specification:'PF Tempesta Five Condensed, ';fill:#1f1f1f;fill-opacity:1"
         id="path971"
         inkscape:connector-curvature="0" />
      <path
         d="m 316.34209,310.50817 v 3.2 h -3.2 v 4.8 h -16 v -4.8 h -3.2 v -3.2 h -4.8 v -32 h 8 v 32 h 16 v -32 h 8 v 32 z"
         style="font-style:normal;font-variant:normal;font-weight:normal;font-stretch:normal;font-size:64px;font-family:'PF Tempesta Five Condensed';-inkscape-font-specification:'PF Tempesta Five Condensed, ';fill:#1f1f1f;fill-opacity:1"
         id="path973"
         inkscape:connector-curvature="0" />
      <path
         d="m 337.14197,318.50817 h -8 v -40 h 8 z"
         style="font-style:normal;font-variant:normal;font-weight:normal;font-stretch:normal;font-size:64px;font-family:'PF Tempesta Five Condensed';-inkscape-font-specification:'PF Tempesta Five Condensed, ';fill:#1f1f1f;fill-opacity:1"
         id="path975"
         inkscape:connector-curvature="0" />
      <path
         d="m 369.14185,294.57217 v 7.936 h -8 v -7.936 h -8 v 23.936 h -8 v -40 h 8 v 8 h 8 v 8 h 8 v -8 h 8 v -8 h 8 v 40 h -8 v -23.936 z"
         style="font-style:normal;font-variant:normal;font-weight:normal;font-stretch:normal;font-size:64px;font-family:'PF Tempesta Five Condensed';-inkscape-font-specification:'PF Tempesta Five Condensed, ';fill:#1f1f1f;fill-opacity:1"
         id="path977"
         inkscape:connector-curvature="0" />
      <path
         d="m 444.3416,294.50817 v 3.2 h -3.2 v 4.8 h 8 v 8 h -4.8 v 3.2 h -3.2 v 4.8 h -24 v -40 h 24 v 4.8 h 3.2 v 3.2 h 4.8 v 8 z m -19.2,-8 v 8 h 16 v -8 z m 16,16.064 h -16 v 7.936 h 16 z"
         style="font-style:normal;font-variant:normal;font-weight:normal;font-stretch:normal;font-size:64px;font-family:'PF Tempesta Five Condensed';-inkscape-font-specification:'PF Tempesta Five Condensed, ';fill:#1f1f1f;fill-opacity:1"
         id="path979"
         inkscape:connector-curvature="0" />
      <path
         d="m 484.34148,283.30817 v 3.2 h 4.8 v 32 h -8 v -16 h -16 v 16 h -8 v -32 h 4.8 v -3.2 h 3.2 v -4.8 h 16 v 4.8 z m -3.2,3.2 h -16 v 8 h 16 z"
         style="font-style:normal;font-variant:normal;font-weight:normal;font-stretch:normal;font-size:64px;font-family:'PF Tempesta Five Condensed';-inkscape-font-specification:'PF Tempesta Five Condensed, ';fill:#1f1f1f;fill-opacity:1"
         id="path981"
         inkscape:connector-curvature="0" />
      <path
         d="m 524.34136,294.50817 v 3.2 h -3.2 v 4.8 h -16 v 8 h 24 v 8 h -32 v -40 h 32 v 8 h -24 v 8 z"
         style="font-style:normal;font-variant:normal;font-weight:normal;font-stretch:normal;font-size:64px;font-family:'PF Tempesta Five Condensed';-inkscape-font-specification:'PF Tempesta Five Condensed, ';fill:#1f1f1f;fill-opacity:1"
         id="path983"
         inkscape:connector-curvature="0" />
      <path
         d="m 545.14124,286.50817 h -8 v -8 h 24 v 8 h -8 v 32 h -8 z"
         style="font-style:normal;font-variant:normal;font-weight:normal;font-stretch:normal;font-size:64px;font-family:'PF Tempesta Five Condensed';-inkscape-font-specification:'PF Tempesta Five Condensed, ';fill:#1f1f1f;fill-opacity:1"
         id="path985"
         inkscape:connector-curvature="0" />
      <path
         d="m 596.34111,283.30817 v 3.2 h 4.8 v 32 h -8 v -16 h -16 v 16 h -8 v -32 h 4.8 v -3.2 h 3.2 v -4.8 h 16 v 4.8 z m -3.2,3.2 h -16 v 8 h 16 z"
         style="font-style:normal;font-variant:normal;font-weight:normal;font-stretch:normal;font-size:64px;font-family:'PF Tempesta Five Condensed';-inkscape-font-specification:'PF Tempesta Five Condensed, ';fill:#1f1f1f;fill-opacity:1"
         id="path987"
         inkscape:connector-curvature="0" />
    </g>
    <g
       aria-label="various 
uncategorised 
sounds"
       transform="matrix(0.23817322,0,0,0.23817322,120.51102,121.69183)"
       style="font-style:normal;font-variant:normal;font-weight:normal;font-stretch:normal;font-size:53.33333588px;line-height:1.25;font-family:'PF Tempesta Five Condensed';-inkscape-font-specification:'PF Tempesta Five Condensed, ';letter-spacing:0px;word-spacing:0px;fill:#1f1f1f;fill-opacity:1;stroke:none"
       id="flowRoot957">
      <path
         d="m 157.14258,308.44756 h -20 v -33.33333 h 6.66667 v 26.66667 h 13.33333 v -26.66667 h 6.66667 v 26.66667 h -4 v 2.66666 h -2.66667 z"
         style="font-style:normal;font-variant:normal;font-weight:normal;font-stretch:normal;font-size:53.33333588px;font-family:'PF Tempesta Five Condensed';-inkscape-font-specification:'PF Tempesta Five Condensed, ';fill:#1f1f1f;fill-opacity:1"
         id="path990"
         inkscape:connector-curvature="0" />
      <path
         d="m 193.14248,279.11423 v 2.66667 h 4 v 26.66666 h -6.66667 v -13.33333 h -13.33333 v 13.33333 h -6.66667 V 281.7809 h 4 v -2.66667 h 2.66667 v -4 h 13.33333 v 4 z m -2.66667,2.66667 h -13.33333 v 6.66666 h 13.33333 z"
         style="font-style:normal;font-variant:normal;font-weight:normal;font-stretch:normal;font-size:53.33333588px;font-family:'PF Tempesta Five Condensed';-inkscape-font-specification:'PF Tempesta Five Condensed, ';fill:#1f1f1f;fill-opacity:1"
         id="path992"
         inkscape:connector-curvature="0" />
      <path
         d="m 226.47571,279.11423 v 2.66667 h 4 v 6.66666 h -4 v 2.66667 h -2.66667 v 5.33333 h 5.33334 v 5.33334 h 1.33333 v 6.66666 h -6.66667 V 297.7809 h -2.66666 v -2.66667 h -10.66667 v 13.33333 h -6.66667 v -33.33333 h 20 v 4 z m -16,9.33333 h 13.33333 v -6.66666 h -13.33333 z"
         style="font-style:normal;font-variant:normal;font-weight:normal;font-stretch:normal;font-size:53.33333588px;font-family:'PF Tempesta Five Condensed';-inkscape-font-specification:'PF Tempesta Five Condensed, ';fill:#1f1f1f;fill-opacity:1"
         id="path994"
         inkscape:connector-curvature="0" />
      <path
         d="m 243.80894,308.44756 h -6.66667 v -33.33333 h 6.66667 z"
         style="font-style:normal;font-variant:normal;font-weight:normal;font-stretch:normal;font-size:53.33333588px;font-family:'PF Tempesta Five Condensed';-inkscape-font-specification:'PF Tempesta Five Condensed, ';fill:#1f1f1f;fill-opacity:1"
         id="path996"
         inkscape:connector-curvature="0" />
      <path
         d="m 270.47551,304.44756 v 4 h -13.33333 v -4 h -2.66667 v -2.66666 h -4 v -20 h 4 v -2.66667 h 2.66667 v -4 h 13.33333 v 4 h 2.66667 v 2.66667 h 4 v 20 h -4 v 2.66666 z m 0,-2.66666 v -20 h -13.33333 v 20 z"
         style="font-style:normal;font-variant:normal;font-weight:normal;font-stretch:normal;font-size:53.33333588px;font-family:'PF Tempesta Five Condensed';-inkscape-font-specification:'PF Tempesta Five Condensed, ';fill:#1f1f1f;fill-opacity:1"
         id="path998"
         inkscape:connector-curvature="0" />
      <path
         d="m 306.47541,301.7809 v 2.66666 h -2.66666 v 4 h -13.33334 v -4 h -2.66666 v -2.66666 h -4 v -26.66667 h 6.66666 v 26.66667 h 13.33334 v -26.66667 h 6.66666 v 26.66667 z"
         style="font-style:normal;font-variant:normal;font-weight:normal;font-stretch:normal;font-size:53.33333588px;font-family:'PF Tempesta Five Condensed';-inkscape-font-specification:'PF Tempesta Five Condensed, ';fill:#1f1f1f;fill-opacity:1"
         id="path1000"
         inkscape:connector-curvature="0" />
      <path
         d="m 337.14197,308.44756 h -20 v -6.66666 h 20 v -6.66667 h -13.33334 v -4 h -2.66666 v -2.66667 h -4 v -6.66666 h 4 v -2.66667 h 2.66666 v -4 h 20.00001 v 6.66667 h -20.00001 v 6.66666 h 13.33334 v 4 h 2.66667 v 2.66667 h 4 v 6.66667 h -4 v 2.66666 h -2.66667 z"
         style="font-style:normal;font-variant:normal;font-weight:normal;font-stretch:normal;font-size:53.33333588px;font-family:'PF Tempesta Five Condensed';-inkscape-font-specification:'PF Tempesta Five Condensed, ';fill:#1f1f1f;fill-opacity:1"
         id="path1002"
         inkscape:connector-curvature="0" />
      <path
         d="m 159.80925,368.44758 v 2.66667 h -2.66667 v 4 h -13.33333 v -4 h -2.66667 v -2.66667 h -4 v -26.66666 h 6.66667 v 26.66666 h 13.33333 v -26.66666 h 6.66667 v 26.66666 z"
         style="font-style:normal;font-variant:normal;font-weight:normal;font-stretch:normal;font-size:53.33333588px;font-family:'PF Tempesta Five Condensed';-inkscape-font-specification:'PF Tempesta Five Condensed, ';fill:#1f1f1f;fill-opacity:1"
         id="path1004"
         inkscape:connector-curvature="0" />
      <path
         d="m 197.14248,375.11425 h -6.66667 v -13.33333 h -6.66667 v -6.61334 h -6.66666 v 19.94667 h -6.66667 v -33.33333 h 6.66667 v 6.66666 h 6.66666 v 6.66667 h 6.66667 v -13.33333 h 6.66667 z"
         style="font-style:normal;font-variant:normal;font-weight:normal;font-stretch:normal;font-size:53.33333588px;font-family:'PF Tempesta Five Condensed';-inkscape-font-specification:'PF Tempesta Five Condensed, ';fill:#1f1f1f;fill-opacity:1"
         id="path1006"
         inkscape:connector-curvature="0" />
      <path
         d="m 230.47571,348.44758 h -20 v 20 h 20 v 6.66667 h -20 v -4 h -2.66667 v -2.66667 h -4 v -20 h 4 v -2.66666 h 2.66667 v -4 h 20 z"
         style="font-style:normal;font-variant:normal;font-weight:normal;font-stretch:normal;font-size:53.33333588px;font-family:'PF Tempesta Five Condensed';-inkscape-font-specification:'PF Tempesta Five Condensed, ';fill:#1f1f1f;fill-opacity:1"
         id="path1008"
         inkscape:connector-curvature="0" />
      <path
         d="m 259.80894,345.78092 v 2.66666 h 4 v 26.66667 h -6.66667 v -13.33333 h -13.33333 v 13.33333 h -6.66667 v -26.66667 h 4 v -2.66666 h 2.66667 v -4 h 13.33333 v 4 z m -2.66667,2.66666 h -13.33333 v 6.66667 h 13.33333 z"
         style="font-style:normal;font-variant:normal;font-weight:normal;font-stretch:normal;font-size:53.33333588px;font-family:'PF Tempesta Five Condensed';-inkscape-font-specification:'PF Tempesta Five Condensed, ';fill:#1f1f1f;fill-opacity:1"
         id="path1010"
         inkscape:connector-curvature="0" />
      <path
         d="m 277.14218,348.44758 h -6.66667 v -6.66666 h 20 v 6.66666 h -6.66667 v 26.66667 h -6.66666 z"
         style="font-style:normal;font-variant:normal;font-weight:normal;font-stretch:normal;font-size:53.33333588px;font-family:'PF Tempesta Five Condensed';-inkscape-font-specification:'PF Tempesta Five Condensed, ';fill:#1f1f1f;fill-opacity:1"
         id="path1012"
         inkscape:connector-curvature="0" />
      <path
         d="m 319.80874,355.11425 v 2.66667 h -2.66666 v 4 h -13.33334 v 6.66666 h 20 v 6.66667 h -26.66667 v -33.33333 h 26.66667 v 6.66666 h -20 v 6.66667 z"
         style="font-style:normal;font-variant:normal;font-weight:normal;font-stretch:normal;font-size:53.33333588px;font-family:'PF Tempesta Five Condensed';-inkscape-font-specification:'PF Tempesta Five Condensed, ';fill:#1f1f1f;fill-opacity:1"
         id="path1014"
         inkscape:connector-curvature="0" />
      <path
         d="m 350.47531,361.78092 h -6.66666 v -6.66667 h 13.33333 v 20 h -20 v -4 h -2.66667 v -2.66667 h -4 v -20 h 4 v -2.66666 h 2.66667 v -4 h 20 v 6.66666 h -20 v 20 h 13.33333 z"
         style="font-style:normal;font-variant:normal;font-weight:normal;font-stretch:normal;font-size:53.33333588px;font-family:'PF Tempesta Five Condensed';-inkscape-font-specification:'PF Tempesta Five Condensed, ';fill:#1f1f1f;fill-opacity:1"
         id="path1016"
         inkscape:connector-curvature="0" />
      <path
         d="m 383.80855,371.11425 v 4 h -13.33334 v -4 h -2.66666 v -2.66667 h -4 v -20 h 4 v -2.66666 h 2.66666 v -4 h 13.33334 v 4 h 2.66667 v 2.66666 h 4 v 20 h -4 v 2.66667 z m 0,-2.66667 v -20 h -13.33334 v 20 z"
         style="font-style:normal;font-variant:normal;font-weight:normal;font-stretch:normal;font-size:53.33333588px;font-family:'PF Tempesta Five Condensed';-inkscape-font-specification:'PF Tempesta Five Condensed, ';fill:#1f1f1f;fill-opacity:1"
         id="path1018"
         inkscape:connector-curvature="0" />
      <path
         d="m 419.80845,345.78092 v 2.66666 h 4 v 6.66667 h -4 v 2.66667 h -2.66666 v 5.33333 h 5.33333 v 5.33333 h 1.33333 v 6.66667 h -6.66666 v -10.66667 h -2.66667 v -2.66666 h -10.66667 v 13.33333 h -6.66667 v -33.33333 h 20.00001 v 4 z m -16,9.33333 h 13.33334 v -6.66667 h -13.33334 z"
         style="font-style:normal;font-variant:normal;font-weight:normal;font-stretch:normal;font-size:53.33333588px;font-family:'PF Tempesta Five Condensed';-inkscape-font-specification:'PF Tempesta Five Condensed, ';fill:#1f1f1f;fill-opacity:1"
         id="path1020"
         inkscape:connector-curvature="0" />
      <path
         d="m 437.14167,375.11425 h -6.66666 v -33.33333 h 6.66666 z"
         style="font-style:normal;font-variant:normal;font-weight:normal;font-stretch:normal;font-size:53.33333588px;font-family:'PF Tempesta Five Condensed';-inkscape-font-specification:'PF Tempesta Five Condensed, ';fill:#1f1f1f;fill-opacity:1"
         id="path1022"
         inkscape:connector-curvature="0" />
      <path
         d="m 463.80823,375.11425 h -20 v -6.66667 h 20 v -6.66666 h -13.33334 v -4 h -2.66666 v -2.66667 h -4 v -6.66667 h 4 v -2.66666 h 2.66666 v -4 h 20.00001 v 6.66666 h -20.00001 v 6.66667 h 13.33334 v 4 h 2.66667 v 2.66667 h 4 v 6.66666 h -4 v 2.66667 h -2.66667 z"
         style="font-style:normal;font-variant:normal;font-weight:normal;font-stretch:normal;font-size:53.33333588px;font-family:'PF Tempesta Five Condensed';-inkscape-font-specification:'PF Tempesta Five Condensed, ';fill:#1f1f1f;fill-opacity:1"
         id="path1024"
         inkscape:connector-curvature="0" />
      <path
         d="m 499.80815,355.11425 v 2.66667 h -2.66667 v 4 h -13.33333 v 6.66666 h 20 v 6.66667 h -26.66667 v -33.33333 h 26.66667 v 6.66666 h -20 v 6.66667 z"
         style="font-style:normal;font-variant:normal;font-weight:normal;font-stretch:normal;font-size:53.33333588px;font-family:'PF Tempesta Five Condensed';-inkscape-font-specification:'PF Tempesta Five Condensed, ';fill:#1f1f1f;fill-opacity:1"
         id="path1026"
         inkscape:connector-curvature="0" />
      <path
         d="m 533.14137,345.78092 v 2.66666 h 4 v 20 h -4 v 2.66667 h -2.66667 v 4 h -20 v -33.33333 h 20 v 4 z m -16,22.66666 h 13.33333 v -20 h -13.33333 z"
         style="font-style:normal;font-variant:normal;font-weight:normal;font-stretch:normal;font-size:53.33333588px;font-family:'PF Tempesta Five Condensed';-inkscape-font-specification:'PF Tempesta Five Condensed, ';fill:#1f1f1f;fill-opacity:1"
         id="path1028"
         inkscape:connector-curvature="0" />
      <path
         d="m 157.14258,441.78094 h -20 v -6.66667 h 20 v -6.66667 h -13.33333 v -4 h -2.66667 v -2.66666 h -4 v -6.66667 h 4 v -2.66667 h 2.66667 v -4 h 20 v 6.66667 h -20 v 6.66667 h 13.33333 v 4 h 2.66667 v 2.66666 h 4 v 6.66667 h -4 v 2.66667 h -2.66667 z"
         style="font-style:normal;font-variant:normal;font-weight:normal;font-stretch:normal;font-size:53.33333588px;font-family:'PF Tempesta Five Condensed';-inkscape-font-specification:'PF Tempesta Five Condensed, ';fill:#1f1f1f;fill-opacity:1"
         id="path1030"
         inkscape:connector-curvature="0" />
      <path
         d="m 190.47581,437.78094 v 4 h -13.33333 v -4 h -2.66667 v -2.66667 h -4 v -20 h 4 v -2.66667 h 2.66667 v -4 h 13.33333 v 4 h 2.66667 v 2.66667 h 4 v 20 h -4 v 2.66667 z m 0,-2.66667 v -20 h -13.33333 v 20 z"
         style="font-style:normal;font-variant:normal;font-weight:normal;font-stretch:normal;font-size:53.33333588px;font-family:'PF Tempesta Five Condensed';-inkscape-font-specification:'PF Tempesta Five Condensed, ';fill:#1f1f1f;fill-opacity:1"
         id="path1032"
         inkscape:connector-curvature="0" />
      <path
         d="m 226.47571,435.11427 v 2.66667 h -2.66667 v 4 h -13.33333 v -4 h -2.66667 v -2.66667 h -4 V 408.4476 h 6.66667 v 26.66667 h 13.33333 V 408.4476 h 6.66667 v 26.66667 z"
         style="font-style:normal;font-variant:normal;font-weight:normal;font-stretch:normal;font-size:53.33333588px;font-family:'PF Tempesta Five Condensed';-inkscape-font-specification:'PF Tempesta Five Condensed, ';fill:#1f1f1f;fill-opacity:1"
         id="path1034"
         inkscape:connector-curvature="0" />
      <path
         d="m 263.80894,441.78094 h -6.66667 V 428.4476 h -6.66666 v -6.61333 h -6.66667 v 19.94667 h -6.66667 V 408.4476 h 6.66667 v 6.66667 h 6.66667 v 6.66667 h 6.66666 V 408.4476 h 6.66667 z"
         style="font-style:normal;font-variant:normal;font-weight:normal;font-stretch:normal;font-size:53.33333588px;font-family:'PF Tempesta Five Condensed';-inkscape-font-specification:'PF Tempesta Five Condensed, ';fill:#1f1f1f;fill-opacity:1"
         id="path1036"
         inkscape:connector-curvature="0" />
      <path
         d="m 293.14218,412.4476 v 2.66667 h 4 v 20 h -4 v 2.66667 h -2.66667 v 4 h -20 V 408.4476 h 20 v 4 z m -16,22.66667 h 13.33333 v -20 h -13.33333 z"
         style="font-style:normal;font-variant:normal;font-weight:normal;font-stretch:normal;font-size:53.33333588px;font-family:'PF Tempesta Five Condensed';-inkscape-font-specification:'PF Tempesta Five Condensed, ';fill:#1f1f1f;fill-opacity:1"
         id="path1038"
         inkscape:connector-curvature="0" />
      <path
         d="m 323.80875,441.78094 h -20 v -6.66667 h 20 v -6.66667 h -13.33334 v -4 h -2.66666 v -2.66666 h -4 v -6.66667 h 4 v -2.66667 h 2.66666 v -4 h 20 v 6.66667 h -20 v 6.66667 h 13.33334 v 4 h 2.66666 v 2.66666 h 4 v 6.66667 h -4 v 2.66667 h -2.66666 z"
         style="font-style:normal;font-variant:normal;font-weight:normal;font-stretch:normal;font-size:53.33333588px;font-family:'PF Tempesta Five Condensed';-inkscape-font-specification:'PF Tempesta Five Condensed, ';fill:#1f1f1f;fill-opacity:1"
         id="path1040"
         inkscape:connector-curvature="0" />
    </g>
  </g>
</svg>
